<svg width="100" height="80" viewBox="0 0 100 80" fill="none" xmlns="http://www.w3.org/2000/svg">
<style>
    path {
      fill: #003b73;
    }
    @media (prefers-color-scheme: dark) {
      path {
        fill: #76bcee;
      }
    }
  </style>
<path d="M39.007 60.4726V37.837C34.6908 50.7898 26.8234 66.9579 12.4834 83.6914H55.4408C45.8725 80.3364 39.007 71.2104 39.007 60.4726Z" fill="black"/>
<path d="M53.8929 37.8526C56.8545 36.5806 60.1158 35.8744 63.5421 35.8744C77.0942 35.8744 88.0781 46.8878 88.0781 60.4726C88.0781 71.2098 81.212 80.3364 71.6443 83.6914H106.518C106.518 83.6914 85.3566 22.4352 44.2319 9.46408C48.5224 13.7009 53.8929 22.137 53.8929 37.8526Z" fill="black"/>
<path d="M73.567 60.4727C73.567 54.9197 69.081 50.4207 63.5421 50.4207C58.0059 50.4207 53.5166 54.9197 53.5166 60.4727C53.5166 66.024 58.0059 70.5236 63.5421 70.5236C69.081 70.5236 73.567 66.024 73.567 60.4727Z" fill="black"/>
</svg>
