      <svg
        xmlns="http://www.w3.org/2000/svg"
        viewBox="0 0 1440 640"
        height="640"
      >
      <g>
        <path
          fill="#0082da"
          fill-opacity="0.2"
          d="M0,96L80,122.7C160,149,320,203,480,240C640,277,800,299,960,288C1120,277,1280,235,1360,213.3L1440,192L1440,320L1360,320C1280,320,1120,320,960,320C800,320,640,320,480,320C320,320,160,320,80,320L0,320Z"
        ></path>
        <path
          fill="#4fb477"
          fill-opacity="0.2"
          d="M0,160L40,138.7C80,117,160,75,240,90.7C320,107,400,181,480,218.7C560,256,640,256,720,213.3C800,171,880,85,960,74.7C1040,64,1120,128,1200,149.3C1280,171,1360,149,1400,138.7L1440,128L1440,320L1400,320C1360,320,1280,320,1200,320C1120,320,1040,320,960,320C880,320,800,320,720,320C640,320,560,320,480,320C400,320,320,320,240,320C160,320,80,320,40,320L0,320Z"
        ></path>
        <path
          fill="#0082da"
          fill-opacity="0.2"
          d="M0,256L40,256C80,256,160,256,240,240C320,224,400,192,480,197.3C560,203,640,245,720,234.7C800,224,880,160,960,154.7C1040,149,1120,203,1200,202.7C1280,203,1360,149,1400,122.7L1440,96L1440,320L1400,320C1360,320,1280,320,1200,320C1120,320,1040,320,960,320C880,320,800,320,720,320C640,320,560,320,480,320C400,320,320,320,240,320C160,320,80,320,40,320L0,320Z"
        ></path>
        <path
          fill="#5e45b0"
          fill-opacity="0.2"
          d="M0,0L48,48C96,96,192,192,288,208C384,224,480,160,576,160C672,160,768,224,864,218.7C960,213,1056,139,1152,133.3C1248,128,1344,192,1392,224L1440,256L1440,320L1392,320C1344,320,1248,320,1152,320C1056,320,960,320,864,320C768,320,672,320,576,320C480,320,384,320,288,320C192,320,96,320,48,320L0,320Z"
        ></path>
      </g>
      <g transform="translate(0,320)">
        <path
          fill="#0082da"
          fill-opacity="0.2"
          d="M0,96L40,96C80,96,160,96,240,101.3C320,107,400,117,480,106.7C560,96,640,64,720,58.7C800,53,880,75,960,101.3C1040,128,1120,160,1200,170.7C1280,181,1360,171,1400,165.3L1440,160L1440,0L1400,0C1360,0,1280,0,1200,0C1120,0,1040,0,960,0C880,0,800,0,720,0C640,0,560,0,480,0C400,0,320,0,240,0C160,0,80,0,40,0L0,0Z"
        ></path>
        <path
          fill="#4fb477"
          fill-opacity="0.2"
          d="M0,32L40,48C80,64,160,96,240,112C320,128,400,128,480,112C560,96,640,64,720,96C800,128,880,224,960,218.7C1040,213,1120,107,1200,58.7C1280,11,1360,21,1400,26.7L1440,32L1440,0L1400,0C1360,0,1280,0,1200,0C1120,0,1040,0,960,0C880,0,800,0,720,0C640,0,560,0,480,0C400,0,320,0,240,0C160,0,80,0,40,0L0,0Z"
        ></path>
        <path
          fill="#0082da"
          fill-opacity="0.2"
          d="M0,192L40,170.7C80,149,160,107,240,90.7C320,75,400,85,480,117.3C560,149,640,203,720,197.3C800,192,880,128,960,90.7C1040,53,1120,43,1200,37.3C1280,32,1360,32,1400,32L1440,32L1440,0L1400,0C1360,0,1280,0,1200,0C1120,0,1040,0,960,0C880,0,800,0,720,0C640,0,560,0,480,0C400,0,320,0,240,0C160,0,80,0,40,0L0,0Z"
        ></path>
        <path
          fill="#5e45b0"
          fill-opacity="0.2"
          d="M0,32L40,32C80,32,160,32,240,42.7C320,53,400,75,480,74.7C560,75,640,53,720,48C800,43,880,53,960,48C1040,43,1120,21,1200,16C1280,11,1360,21,1400,26.7L1440,32L1440,0L1400,0C1360,0,1280,0,1200,0C1120,0,1040,0,960,0C880,0,800,0,720,0C640,0,560,0,480,0C400,0,320,0,240,0C160,0,80,0,40,0L0,0Z"
        ></path>
        </g>
      </svg>